<svg xmlns="http://www.w3.org/2000/svg" viewBox="0 0 24 24" fill="none">
  <g transform="translate(0 2.29)">
    <path fill="#f59e0b" stroke="#fff" stroke-width="1.2" stroke-linejoin="round"
      d="M10.1 1.5h3.8l.55 2.35c.52.2 1.01.48 1.46.84l2.28-.72 1.9 3.29-1.76 1.63c.08.54.08 1.1 0 1.64l1.76 1.63-1.9 3.29-2.28-.72c-.45.36-.94.64-1.46.84l-.55 2.35h-3.8l-.55-2.35a7.1 7.1 0 0 1-1.46-.84l-2.28.72-1.9-3.29 1.76-1.63a5.8 5.8 0 0 1 0-1.64L3.91 7.26l1.9-3.29 2.28.72c.45-.36.94-.64 1.46-.84l.55-2.35Z"/>
    <circle cx="12" cy="9.71" r="3.1" fill="#334155" stroke="#fff" stroke-width="1.2"/>
  </g>
</svg>
